# xmcd
#
# Track frame offsets: 
#        150
#        20419
#        34652
#        49450
#        69660
#        87437
#        105550
#        123175
#        144380
#        159276
#
# Disc length: 2383 seconds
#
# Revision: 0
# Processed by: cddbd v1.5.2PL0 Copyright (c) Steve Scherf et al.
# Submitted via: ExactAudioCopy v0.99pb5
#
DISCID=7f094d0a
DTITLE=mission for two - walking cool
DYEAR=2008
DGENRE=
TTITLE0=On the fireplace
TTITLE1=Friends
TTITLE2=Probably
TTITLE3=Made me cry
TTITLE4=Applepie
TTITLE5=More than one way home
TTITLE6=Grooving
TTITLE7=Let's take a walk
TTITLE8=Walking cool
TTITLE9=You're not the same
EXTD=
EXTT0=
EXTT1=
EXTT2=
EXTT3=
EXTT4=
EXTT5=
EXTT6=
EXTT7=
EXTT8=
EXTT9=
PLAYORDER=
